# xmcd
#
# Track frame offsets:
# 150
# 27236
# 50897
# 77793
# 103789
# 129078
# 153810
# 183256
#
# Disc length: 3030 seconds
#
# Revision: 1
# Processed by: cddbd v1.5.2PL0 Copyright (c) Steve Scherf et al.
# Submitted via: CedeCatalogueitor 2.6.0.6 http://personales.ya.com/cdcatalogueitor
#
DISCID=5c0bd408
DTITLE=The Cannery - There Is Life In This Old Land
DYEAR=1900
DGENRE=
TTITLE0=Feelin' Country
TTITLE1=Starshuttle
TTITLE2=Just September
TTITLE3=Through Rivers
TTITLE4='til Halloween
TTITLE5=Hold The Ghost
TTITLE6=It Aín't
TTITLE7=New Machine
EXTD=
EXTT0=
EXTT1=
EXTT2=
EXTT3=
EXTT4=
EXTT5=
EXTT6=
EXTT7=
PLAYORDER=
